ply
format ascii 1.0
comment VCGLIB generated
element vertex 25
property double x
property double y
property double z
property double nx
property double ny
property double nz
element face 0
property list uchar int vertex_indices
end_header
404 -588 -901 0 0 0 
528 -643 409 0 0 0 
-838 591 734 0 0 0 
390 -675 -793 0 0 0 
-537 -823 -458 0 0 0 
-485 -357 347 0 0 0 
-345 -311 381 0 0 0 
-661 -816 -575 0 0 0 
-876 649 763 0 0 0 
-618 -824 -621 0 0 0 
553 345 -567 0 0 0 
474 580 667 0 0 0 
-447 -329 318 0 0 0 
-584 868 -557 0 0 0 
544 -627 -890 0 0 0 
564 392 -477 0 0 0 
455 729 728 0 0 0 
-892 524 684 0 0 0 
-689 845 -530 0 0 0 
423 -701 434 0 0 0 
7 -33 -71 0 0 0 
630 319 -379 0 0 0 
443 580 662 0 0 0 
-789 900 -551 0 0 0 
459 -707 401 0 0 0 
